<?xml version="1.0" encoding="utf-8"?>
<!-- Generator: Adobe Illustrator 24.2.3, SVG Export Plug-In . SVG Version: 6.00 Build 0)  -->
<svg version="1.1" id="Layer_1" xmlns="http://www.w3.org/2000/svg" xmlns:xlink="http://www.w3.org/1999/xlink" x="0px" y="0px"
	 viewBox="0 0 24 24" style="enable-background:new 0 0 24 24;" xml:space="preserve">
<style type="text/css">
	.st0{fill-rule:evenodd;clip-rule:evenodd;fill:#A62626;}
</style>
<path class="st0" d="M8.4,14.6H8.3c-0.4-0.1-0.7-0.4-0.6-0.8c0.5-3.1,0.6-8.1,0.6-8.1C8.3,5.3,8.6,5,9.1,5c0.4,0,0.7,0.3,0.7,0.7
	c0,0.2-0.2,5.1-0.6,8.3C9,14.4,8.7,14.6,8.4,14.6z M18.4,15.9c-0.3,0-0.6-0.2-0.7-0.5c-0.1-0.4,0.1-0.8,0.4-0.9c0,0,0,0,0,0
	c3.3-1.1,3.4-1.9,3.4-2.3c0-0.7-0.5-1.6-0.7-1.9c-0.2-0.3-0.2-0.8,0.2-1c0.3-0.2,0.8-0.2,1,0.2c0.1,0.1,1,1.5,1,2.8
	c-0.1,1.6-1.3,2.6-4.4,3.6c0,0-0.1,0-0.1,0C18.5,15.9,18.5,15.9,18.4,15.9L18.4,15.9z M8.9,18.4c-0.2,0-0.4-0.1-0.5-0.3
	c-0.2-0.3-0.2-0.7,0.1-1c0,0,0,0,0,0c1.4-1.1,2.4-2.2,3-3c-0.4-0.2-0.7-0.4-0.9-0.9c-0.2-0.4-0.3-1.1,0.3-2c0.9-1.3,1.8-1.6,2.1-1.7
	c0.4-0.1,0.9,0.2,1,0.6c0.1,0.3,0.3,1.3-0.3,2.8c0.8,0,1.5-0.2,2-0.7c1-0.8,1-2.1,1-2.1c0-0.4,0.3-0.7,0.7-0.7
	c0.4,0,0.7,0.3,0.7,0.7c0,0.1-0.1,1.9-1.5,3.2c-0.9,0.8-2.2,1.1-3.7,1c-0.7,1.1-1.9,2.4-3.6,3.8C9.2,18.3,9.1,18.4,8.9,18.4z
	 M12.7,11.3c-0.2,0.2-0.5,0.5-0.6,0.7c-0.2,0.4-0.2,0.5-0.2,0.6c0,0.1,0.2,0.2,0.4,0.2C12.6,12.2,12.7,11.7,12.7,11.3z M12.9,16.2
	c0,0.4,0.3,0.7,0.7,0.7h0c0.1,0,1.2,0,2.9-0.4c0.4-0.1,0.6-0.4,0.5-0.8c0,0,0,0,0,0c-0.1-0.4-0.4-0.6-0.8-0.5c0,0,0,0,0,0
	c-1.6,0.3-2.7,0.4-2.7,0.4C13.2,15.5,12.9,15.8,12.9,16.2z M1.1,18.1c0.1,0.2,0.4,0.3,0.6,0.3c0.1,0,0.3,0,0.4-0.1
	c4.4-3.2,4.6-7.5,4.6-7.7c0-0.4-0.3-0.7-0.7-0.7c-0.4,0-0.7,0.3-0.7,0.7c0,0.1-0.2,3.7-4,6.6C1,17.3,0.9,17.8,1.1,18.1
	C1.1,18.1,1.1,18.1,1.1,18.1z"/>
</svg>
